<svg xmlns="http://www.w3.org/2000/svg" viewBox="0 0 100 100">
    <defs id="SvgjsDefs1019" />
    <g
      id="SvgjsG1020"
      transform="translate(288.2778893709183, 0) scale(3.816987494785209)"
      feature="container"
      rel="mainfill"
      name="outline_container"
      fill="#000000"
    >
      <defs xmlns="http://www.w3.org/2000/svg" />
      <g xmlns="http://www.w3.org/2000/svg">
        <ellipse
          transform="matrix(0.8348 -0.5505 0.5505 0.8348 -89.874 28.9543)"
          cx="3.315"
          cy="164.25"
          rx="3.314"
          ry="3.314"
        />
        <circle cx="89.964" cy="210.902" r="3.314" />
        <ellipse
          transform="matrix(0.707 -0.7072 0.7072 0.707 -122.7951 64.6057)"
          cx="16.578"
          cy="180.51"
          rx="3.314"
          ry="3.314"
        />
        <ellipse
          transform="matrix(0.707 -0.7072 0.7072 0.707 -79.7822 168.4209)"
          cx="163.365"
          cy="180.494"
          rx="3.314"
          ry="3.314"
        />
        <ellipse
          transform="matrix(0.5603 -0.8283 0.8283 0.5603 -145.9422 111.2509)"
          cx="31.811"
          cy="193.082"
          rx="3.314"
          ry="3.314"
        />
        <ellipse
          transform="matrix(0.5603 -0.8283 0.8283 0.5603 -59.5225 218.3995)"
          cx="175.938"
          cy="165.261"
          rx="3.314"
          ry="3.314"
        />
        <ellipse
          transform="matrix(0.9819 -0.1896 0.1896 0.9819 -37.6447 24.5832)"
          cx="109.647"
          cy="209.019"
          rx="3.314"
          ry="3.314"
        />
        <ellipse
          transform="matrix(0.2011 -0.9796 0.9796 0.2011 -149.323 234.4627)"
          cx="69.088"
          cy="208.781"
          rx="3.314"
          ry="3.314"
        />
        <ellipse
          transform="matrix(0.8348 -0.5505 0.5505 0.8348 -82.3671 112.9837)"
          cx="147.105"
          cy="193.758"
          rx="3.314"
          ry="3.314"
        />
        <ellipse
          transform="matrix(0.3826 -0.9239 0.9239 0.3826 -156.5339 171.7706)"
          cx="50.254"
          cy="203.006"
          rx="3.314"
          ry="3.314"
        />
        <ellipse
          transform="matrix(0.9238 -0.3829 0.3829 0.9238 -67.8383 65.1299)"
          cx="129.705"
          cy="202.993"
          rx="3.314"
          ry="3.314"
        />
        <circle cx="89.964" cy="3.314" r="3.314" />
        <ellipse
          transform="matrix(0.707 -0.7072 0.7072 0.707 24.0182 125.3918)"
          cx="163.35"
          cy="33.707"
          rx="3.314"
          ry="3.314"
        />
        <ellipse
          transform="matrix(0.707 -0.7072 0.7072 0.707 -18.9957 21.5925)"
          cx="16.563"
          cy="33.723"
          rx="3.314"
          ry="3.314"
        />
        <ellipse
          transform="matrix(0.5603 -0.8283 0.8283 0.5603 47.6244 131.9791)"
          cx="148.116"
          cy="21.135"
          rx="3.314"
          ry="3.314"
        />
        <ellipse
          transform="matrix(0.5603 -0.8283 0.8283 0.5603 -38.796 24.832)"
          cx="3.99"
          cy="48.956"
          rx="3.314"
          ry="3.314"
        />
        <ellipse
          transform="matrix(0.9819 -0.1896 0.1896 0.9819 0.2895 13.4216)"
          cx="70.281"
          cy="5.198"
          rx="3.314"
          ry="3.314"
        />
        <ellipse
          transform="matrix(0.2011 -0.9796 0.9796 0.2011 83.2207 112.9164)"
          cx="110.84"
          cy="5.435"
          rx="3.314"
          ry="3.314"
        />
        <ellipse
          transform="matrix(0.8348 -0.5505 0.5505 0.8348 1.6642 105.4808)"
          cx="176.613"
          cy="49.967"
          rx="3.314"
          ry="3.314"
        />
        <ellipse
          transform="matrix(0.8348 -0.5505 0.5505 0.8348 -5.8417 21.4481)"
          cx="32.823"
          cy="20.459"
          rx="3.314"
          ry="3.314"
        />
        <ellipse
          transform="matrix(0.3826 -0.9239 0.9239 0.3826 69.7048 126.7296)"
          cx="129.673"
          cy="11.211"
          rx="3.314"
          ry="3.314"
        />
        <ellipse
          transform="matrix(0.9238 -0.3829 0.3829 0.9238 -0.4705 20.0834)"
          cx="50.223"
          cy="11.224"
          rx="3.314"
          ry="3.314"
        />
      </g>
    </g>
    <g
      id="main_text"
      rel="mainfill"
      name="main_text"
      feature="main_text"
      groupname="main_text"
      fill="#100312"
      transform="translate(-12.62373046875, 200.37570800781248) scale(12.8)"
    >
      <path d="M0.98633 20.98635 l2.2363 -1.2402 c0.64453 1.1133 1.4551 1.748 2.8613 1.748 c1.3672 0 2.8125 -0.84961 2.8125 -2.334 c0 -2.4121 -5.7813 -1.6406 -5.7813 -5.5957 c0 -3.0371 2.5195 -4.8438 5.2832 -4.8438 c1.9043 0 3.5254 0.85938 4.3262 2.6074 l-2.0703 1.2695 c-0.56641 -0.91797 -1.2305 -1.5039 -2.4121 -1.5039 c-1.6016 0 -2.4707 1.0059 -2.4707 2.2266 c0 2.1777 5.8105 1.2988 5.8105 5.4004 c0 3.3203 -2.6563 5.1465 -5.8301 5.1465 c-2.1289 0 -3.8477 -0.9082 -4.7656 -2.8809 z M26.171765625 8.90575 l-1.7969 9.2578 c-0.52734 2.6855 -2.2559 5.7031 -6.4844 5.7031 c-4.2578 0 -4.6875 -3.0566 -4.1699 -5.7129 l1.7969 -9.248 l2.6172 0 l-1.7969 9.2676 c-0.35156 1.7969 -0.078125 3.2813 2.0215 3.2813 c2.3535 0 3.0664 -1.4844 3.4277 -3.3008 l1.8066 -9.248 l2.5781 0 z M31.767625 18.12495 l-2.0801 0 l-1.0645 5.4688 l-2.5879 0 l2.8613 -14.688 l4.1211 0 c3.0078 0 5.1758 1.2598 4.4922 4.7461 c-0.56641 2.9199 -2.8906 4.4727 -5.7422 4.4727 z M32.959025 11.23975 l-1.9336 0 l-0.87891 4.5117 l1.8848 0 c1.3086 0 2.5977 -0.71289 2.8613 -2.0996 c0.33203 -1.6797 -0.30273 -2.4121 -1.9336 -2.4121 z M47.900640625 21.17185 l-0.61523 2.4219 l-9.5215 0 l2.8418 -14.688 l9.5801 0 l-0.60547 2.373 l-6.8359 0 l-0.71289 3.7012 l6.0547 0 l-0.60547 2.3145 l-5.9082 0 l-0.75195 3.877 l7.0801 0 z M60.673453125 23.59375 l-3.0566 0 l-2.2656 -5.6934 l-2.1289 0 l-1.1133 5.6934 l-2.5977 0 l2.8516 -14.688 l4.4141 0 c3.0176 0 5.2051 1.3281 4.5508 4.707 c-0.37109 1.8848 -1.6211 3.1738 -3.3594 3.8672 z M56.699253125 11.22075 l-2.1777 0 l-0.85938 4.4043 l2.2754 0 c1.3184 0 2.5293 -0.81055 2.7734 -2.0703 c0.29297 -1.4941 -0.37109 -2.334 -2.0117 -2.334 z M60.253906125 23.44727 l0.94727 -2.2754 c1.0547 0.21484 1.5137 0.29297 1.9141 0.29297 c2.0117 0 2.7051 -0.85938 3.125 -2.998 l1.8555 -9.5605 l2.5977 0 l-1.9043 9.873 c-0.63477 3.2617 -2.3535 5.0879 -5.8008 5.0879 c-0.67383 0 -1.3477 -0.048828 -2.7344 -0.41992 z M82.59790625 23.59375 l-2.832 0 l-0.58594 -3.1738 l-5.6055 0 l-1.8066 3.1738 l-2.6953 0 l8.4277 -14.688 l2.3828 0 c0.24414 1.2988 2.7148 14.688 2.7148 14.688 z M74.85350625 18.08595 l4.0137 -0.019531 s-0.50781 -3.7012 -0.83984 -5.8008 l-0.068359 0 c-0.79102 1.5137 -3.1055 5.8203 -3.1055 5.8203 z M97.47078125 23.59375 l-2.5684 0 l1.9238 -9.9414 l-0.058594 0 c-0.29297 0.68359 -1.7285 2.9395 -1.8652 3.1445 c-0.17578 0.25391 -2.6172 4.0137 -2.6172 4.0137 l-1.7285 0 s-1.0156 -3.8477 -1.0742 -4.1016 c-0.039063 -0.21484 -0.56641 -2.3145 -0.63477 -3.0762 l-0.068359 0.0097656 l-1.9336 9.9512 l-2.5781 0 l2.8516 -14.688 l2.6172 0 l2.4512 7.9785 l5.4883 -7.9785 l2.6465 0 z" />
    </g>
  </svg>
